#!OML:ASF H:\Pregnant\Project 1\Capture day 1\Session 1\femalepreg.ASF
:FULLY-SPECIFIED
:DEGREES
1008
root -2.00673 15.5482 -14.9693 378.099 3.72145 -361.523
lowerback -13.7059 2.64492 -5.78036
upperback -6.66562 4.30024 -4.15446
thorax 0.533624 2.22805 -0.503598
lowerneck -27.8037 -2.76352 -2.47001
upperneck 29.7765 -4.90422 5.56261
head 15.3279 -1.48423 1.73856
rclavicle 5.48799e-014 -2.8625e-014
rhumerus -15.8512 14.296 -72.0393
rradius 57.564
rwrist -42.346
rhand -23.0241 -48.3005
rfingers 7.12502
rthumb 3.41986 -78.2528
lclavicle 5.48799e-014 -2.8625e-014
lhumerus -2.46952 -37.1972 65.4808
lradius 56.1312
lwrist 59.9074
lhand -31.7984 29.3754
lfingers 7.12502
lthumb -5.05408 59.2951
rfemur -19.5432 4.21766 23.3522
rtibia 55.4554
rfoot -2.14717 0.304686
rtoes -15.6834
lfemur -46.2533 -9.22558 -15.7153
ltibia 32.8466
lfoot -2.43176 3.62219
ltoes -35.7979
1009
root -1.97959 15.5614 -14.8413 378.239 3.3754 -361.413
lowerback -13.7792 2.63082 -6.3911
upperback -6.67802 4.36177 -4.27654
thorax 0.516309 2.26976 -0.283527
lowerneck -27.82 -2.83802 -2.62287
upperneck 29.7882 -4.9943 5.70185
head 15.3523 -1.51864 1.8047
rclavicle -1.96673e-014 5.24792e-014
rhumerus -16.0247 14.2181 -71.9492
rradius 57.3573
rwrist -42.7504
rhand -23.0532 -48.111
rfingers 7.12502
rthumb 3.39169 -78.0638
lclavicle -1.96673e-014 5.24792e-014
lhumerus -2.32611 -37.3373 65.5667
lradius 56.0185
lwrist 59.7475
lhand -31.791 29.4631
lfingers 7.12502
lthumb -5.0469 59.383
rfemur -21.1258 3.83729 22.8796
rtibia 57.6264
rfoot -0.0908574 0.714965
rtoes -12.4203
lfemur -45.6906 -8.86358 -16.1556
ltibia 32.8043
lfoot -2.95768 3.80104
ltoes -36.1401
1010
root -1.95116 15.5751 -14.7139 378.414 3.04134 -361.347
lowerback -13.9064 2.61285 -6.89863
upperback -6.69945 4.41108 -4.38486
thorax 0.524838 2.3029 -0.105487
lowerneck -27.8156 -2.88576 -2.74914
upperneck 29.8011 -5.0463 5.81022
head 15.3687 -1.53903 1.86145
rclavicle -3.4514e-014 1.59028e-014
rhumerus -16.1405 14.1545 -71.8827
rradius 57.1314
rwrist -43.0549
rhand -23.0346 -47.8681
rfingers 7.12502
rthumb 3.4097 -77.8205
lclavicle -3.4514e-014 1.59028e-014
lhumerus -2.18598 -37.4663 65.6339
lradius 55.8866
lwrist 59.586
lhand -31.8328 29.5531
lfingers 7.12502
lthumb -5.08729 59.472
rfemur -22.7394 3.52522 22.4622
rtibia 59.672
rfoot 1.36993 1.1344
rtoes -10.3715
lfemur -45.1681 -8.52709 -16.527
ltibia 32.7484
lfoot -3.45163 4.01123
ltoes -36.5197
1011
root -1.92232 15.5888 -14.5874 378.585 2.71996 -361.31
lowerback -14.0482 2.59011 -7.32958
upperback -6.71453 4.44777 -4.47749
thorax 0.552912 2.32762 0.0459592
lowerneck -27.8176 -2.90698 -2.85209
upperneck 29.8292 -5.06042 5.88998
head 15.3894 -1.54483 1.91051
rclavicle 1.2598e-014 -7.15625e-014
rhumerus -16.1976 14.1064 -71.8311
rradius 56.8988
rwrist -43.241
rhand -22.9502 -47.5856
rfingers 7.12502
rthumb 3.4912 -77.5367
lclavicle 1.2598e-014 -7.15625e-014
lhumerus -2.03411 -37.5752 65.6824
lradius 55.7345
lwrist 59.4237
lhand -31.885 29.4737
lfingers 7.12502
lthumb -5.13769 59.3914
rfemur -24.3331 3.27467 22.0935
rtibia 61.5909
rfoot 2.17124 1.48254
rtoes -9.39893
lfemur -44.6569 -8.22521 -16.8461
ltibia 32.6975
lfoot -3.92359 4.25172
ltoes -36.8797
1012
root -1.89385 15.6022 -14.4618 378.736 2.40757 -361.289
lowerback -14.1712 2.56616 -7.69637
upperback -6.73054 4.47415 -4.56976
thorax 0.575354 2.34595 0.159872
lowerneck -27.8101 -2.90301 -2.90995
upperneck 29.8739 -5.0494 5.94179
head 15.4117 -1.53891 1.94583
rclavicle 1.18538e-013 -3.65764e-014
rhumerus -16.2167 14.0542 -71.8208
rradius 56.6558
rwrist -43.2909
rhand -22.8451 -47.2971
rfingers 7.12502
rthumb 3.59272 -77.2465
lclavicle 1.18538e-013 -3.65764e-014
lhumerus -1.88399 -37.6817 65.7027
lradius 55.5659
lwrist 59.262
lhand -31.9525 29.4005
lfingers 7.12502
lthumb -5.20286 59.3166
rfemur -25.884 3.07748 21.7604
rtibia 63.3861
rfoot 2.36849 1.61126
rtoes -9.22665
lfemur -44.1409 -7.95802 -17.1301
ltibia 32.6594
lfoot -4.38211 4.51674
ltoes -37.1851
1013
root -1.86657 15.6153 -14.3375 378.851 2.10425 -361.265
lowerback -14.2627 2.53582 -8.03477
upperback -6.73533 4.48671 -4.65537
thorax 0.595256 2.35665 0.261808
lowerneck -27.8128 -2.87632 -2.93728
upperneck 29.9383 -5.01151 5.96989
head 15.4419 -1.52125 1.97207
rclavicle 5.479e-014 -6.99722e-014
rhumerus -16.1921 14.0003 -71.835
rradius 56.4104
rwrist -43.2089
rhand -22.7233 -47.0279
rfingers 7.12502
rthumb 3.71027 -76.9753
lclavicle 5.479e-014 -6.99722e-014
lhumerus -1.72668 -37.7687 65.7043
lradius 55.3802
lwrist 59.0994
lhand -32.0269 29.3505
lfingers 7.12502
lthumb -5.27466 59.2648
rfemur -27.3803 2.92867 21.4452
rtibia 65.0633
rfoot 2.08489 1.38366
rtoes -9.489
lfemur -43.6016 -7.72019 -17.4041
ltibia 32.6269
lfoot -4.833 4.78947
ltoes -37.3879
1014
root -1.84093 15.6287 -14.2144 378.92 1.80084 -361.224
lowerback -14.3039 2.50307 -8.35984
upperback -6.73017 4.49009 -4.74435
thorax 0.600678 2.3626 0.348991
lowerneck -27.8182 -2.83024 -2.93204
upperneck 30.0143 -4.95722 5.98787
head 15.4757 -1.49416 1.9923
rclavicle -2.88238e-015 3.18055e-015
rhumerus -16.1314 13.9383 -71.8835
rradius 56.1667
rwrist -43.0245
rhand -22.6157 -46.7643
rfingers 7.12502
rthumb 3.81423 -76.7099
lclavicle -2.88238e-015 3.18055e-015
lhumerus -1.57018 -37.8492 65.6766
lradius 55.1947
lwrist 58.9401
lhand -32.1019 29.3209
lfingers 7.12502
lthumb -5.34709 59.2335
rfemur -28.8236 2.82455 21.1322
rtibia 66.6241
rfoot 1.50579 0.791362
rtoes -9.81862
lfemur -43.0189 -7.49791 -17.69
ltibia 32.5854
lfoot -5.27828 5.05414
ltoes -37.4683
1015
root -1.81717 15.6425 -14.0925 378.949 1.51629 -361.153
lowerback -14.2953 2.46248 -8.68596
upperback -6.71357 4.4788 -4.84337
thorax 0.593211 2.36123 0.421692
lowerneck -27.8318 -2.76874 -2.89384
upperneck 30.094 -4.89574 6.00577
head 15.5118 -1.4599 2.00857
rclavicle -1.13556e-014 4.45278e-014
rhumerus -16.0462 13.8532 -71.9663
rradius 55.9365
rwrist -42.7666
rhand -22.5293 -46.5278
rfingers 7.12502
rthumb 3.89763 -76.4719
lclavicle -1.13556e-014 4.45278e-014
lhumerus -1.40187 -37.9278 65.6142
lradius 55.0051
lwrist 58.7823
lhand -32.1693 29.2889
lfingers 7.12502
lthumb -5.4122 59.1998
rfemur -30.2287 2.74327 20.8135
rtibia 68.0651
rfoot 0.749977 -0.107713
rtoes -10.0777
lfemur -42.3957 -7.29821 -18.0022
ltibia 32.5193
lfoot -5.7132 5.29056
ltoes -37.4475
1016
root -1.79539 15.6565 -13.9716 378.943 1.25202 -361.049
lowerback -14.2434 2.40972 -9.02121
upperback -6.68343 4.44847 -4.94569
thorax 0.577726 2.35044 0.491255
lowerneck -27.8614 -2.69481 -2.84105
upperneck 30.1723 -4.82671 6.03502
head 15.5503 -1.41871 2.02888
rclavicle 2.3059e-014 7.95139e-015
rhumerus -15.9333 13.7522 -72.0726
rradius 55.7246
rwrist -42.4637
rhand -22.4804 -46.3106
rfingers 7.12502
rthumb 3.94487 -76.2539
lclavicle 2.3059e-014 7.95139e-015
lhumerus -1.23272 -37.9931 65.524
lradius 54.8264
lwrist 58.6266
lhand -32.2298 29.2701
lfingers 7.12502
lthumb -5.47058 59.1795
rfemur -31.6056 2.67813 20.4889
rtibia 69.375
rfoot -0.074116 -1.21385
rtoes -10.2007
lfemur -41.7351 -7.10879 -18.3468
ltibia 32.4257
lfoot -6.14063 5.48734
ltoes -37.348
1017
root -1.7756 15.6702 -13.8517 378.912 1.01139 -360.922
lowerback -14.1573 2.34995 -9.35307
upperback -6.64133 4.4051 -5.05753
thorax 0.558867 2.33276 0.545704
lowerneck -27.9114 -2.61345 -2.77064
upperneck 30.243 -4.76197 6.0846
head 15.5906 -1.37376 2.0539
rclavicle -5.889e-014 6.67916e-014
rhumerus -15.7987 13.6239 -72.2048
rradius 55.5347
rwrist -42.1512
rhand -22.4843 -46.1305
rfingers 7.12502
rthumb 3.94114 -76.0738
lclavicle -5.889e-014 6.67916e-014
lhumerus -1.04846 -38.0548 65.3958
lradius 54.6554
lwrist 58.4738
lhand -32.2906 29.2454
lfingers 7.12502
lthumb -5.52929 59.1532
rfemur -32.964 2.63287 20.1687
rtibia 70.5404
rfoot -0.911774 -2.42416
rtoes -10.2719
lfemur -41.0551 -6.93631 -18.7072
ltibia 32.3168
lfoot -6.55757 5.65547
ltoes -37.2034
